<svg version="1.1" id="Layer_1" xmlns="http://www.w3.org/2000/svg" xmlns:xlink="http://www.w3.org/1999/xlink" x="0px" y="0px"
	 width="100%" viewBox="0 0 1080 1080" enable-background="new 0 0 1080 1080" xml:space="preserve">
<path fill="#FFFFFF" opacity="1.000000" stroke="none" 
	d="
M475.000000,1081.000000 
	C316.684875,1081.000000 158.869766,1081.000000 1.027320,1081.000000 
	C1.027320,721.059753 1.027320,361.119507 1.027320,1.089633 
	C360.898712,1.089633 720.797424,1.089633 1080.848145,1.089633 
	C1080.848145,360.999939 1080.848145,720.999939 1080.848145,1081.000000 
	C879.119080,1081.000000 677.309509,1081.000000 475.000000,1081.000000 
M352.267700,369.028229 
	C350.787994,368.393188 349.308319,367.758148 347.953156,366.303589 
	C346.303955,360.732208 345.143372,354.950928 342.866180,349.649261 
	C340.651093,344.492065 337.948242,339.250275 334.284821,335.076813 
	C328.483307,328.467529 320.670135,329.319183 316.700684,336.990631 
	C313.096069,343.957031 310.787354,351.594025 306.984131,358.990387 
	C292.590820,358.406403 278.521118,360.647003 264.532562,363.740509 
	C250.249130,366.899231 235.902100,369.776581 221.647003,373.055786 
	C208.880798,375.992432 196.201813,379.308319 182.337097,382.740936 
	C191.300217,386.085785 199.126266,389.006317 205.772964,391.486725 
	C194.465805,399.579559 182.352280,407.089294 171.626144,416.227509 
	C158.923691,427.049347 149.818588,440.906342 143.164139,456.350372 
	C138.615204,466.907806 139.167221,465.296661 147.591675,470.017883 
	C159.762299,476.838531 167.553375,486.762787 172.894287,499.393494 
	C176.686234,508.360992 180.962006,517.268555 186.209457,525.440186 
	C193.091461,536.157288 201.142166,546.123962 208.782028,556.538574 
	C207.901764,556.295227 206.152603,556.285767 205.057175,555.434753 
	C195.237396,547.806274 185.551666,540.005615 175.786499,532.306274 
	C170.460526,528.107056 165.057129,524.006104 158.531967,518.967773 
	C161.263641,533.499207 165.524368,545.740479 174.474411,555.965027 
	C183.849472,566.675110 195.516373,573.867798 208.609085,579.394470 
	C230.033966,588.438416 251.087524,598.357727 272.387329,607.703552 
	C298.459473,619.143494 325.048981,629.500244 349.547119,644.228027 
	C368.836121,655.824097 384.926941,670.659729 394.668060,691.380676 
	C397.797424,698.037170 400.149597,705.059021 402.857330,711.913757 
	C404.933411,705.862671 406.063568,699.735168 407.147247,693.599365 
	C409.132751,682.357727 409.147308,671.052246 403.303864,661.045532 
	C397.574432,651.234070 390.943726,641.848450 383.851501,632.959839 
	C375.641327,622.670166 366.836487,612.795715 357.657562,603.355774 
	C349.023560,594.476318 339.465576,586.502930 330.495422,577.940857 
	C317.728668,565.754944 305.951721,552.674622 297.646423,536.964844 
	C294.493896,531.001709 292.558472,524.395203 290.792603,518.028442 
	C297.890839,521.979187 304.857391,525.987244 313.195953,527.221252 
	C319.886719,528.211487 326.774445,529.542725 332.909424,532.237366 
	C342.919861,536.634277 352.602325,542.673950 355.348694,554.113220 
	C358.428223,566.940186 366.802277,573.595154 378.367279,576.949341 
	C386.438477,579.290222 394.828705,580.840393 403.184814,581.809204 
	C413.102386,582.959045 420.889038,577.161621 424.306427,567.317627 
	C424.838165,565.785950 425.140106,564.026367 426.106232,562.818481 
	C431.245056,556.394043 430.785767,549.257629 427.988464,542.446533 
	C422.559692,529.227905 416.915894,516.058777 410.556335,503.269318 
	C397.688202,477.390686 384.282898,451.779205 371.933350,425.970398 
	C382.039917,424.980499 392.193817,424.328369 402.241791,422.920319 
	C416.792328,420.881317 431.266266,418.295532 445.772858,415.942963 
	C445.755676,415.374756 445.738495,414.806549 445.721283,414.238342 
	C437.764069,408.505249 429.806854,402.772156 421.745514,396.964050 
	C427.327698,393.059509 432.507172,389.436676 437.531342,385.922424 
	C437.379028,381.944763 435.572845,380.559814 431.808472,380.938568 
	C426.070709,381.515869 420.294159,381.925079 414.530151,381.978149 
	C403.026306,382.084045 391.519806,381.899658 380.312073,381.256683 
	C384.687683,377.197449 388.956940,373.015991 393.457733,369.100647 
	C410.547943,354.233490 427.744080,339.487976 444.798981,324.580658 
	C446.390228,323.189789 447.265198,320.979431 448.858734,318.564636 
	C446.962616,318.290741 445.977173,317.811646 445.423187,318.116516 
	C414.587341,335.086395 383.787598,352.121765 352.267700,369.028229 
M349.353485,655.065613 
	C335.498077,647.161560 322.002167,638.520081 307.694031,631.544678 
	C290.765991,623.292053 273.570190,615.134216 255.704559,609.371704 
	C232.230164,601.799988 208.920349,594.374146 188.645706,579.875488 
	C174.730316,569.924377 163.058456,557.736389 154.007690,543.126892 
	C150.804199,537.955933 147.467377,532.867554 144.013336,527.462769 
	C142.834488,528.755676 142.307327,529.069824 142.197647,529.492371 
	C138.715378,542.907043 136.649826,556.355103 138.910904,570.326965 
	C142.068878,589.840881 151.146149,605.682373 167.314789,616.964294 
	C182.664291,627.674622 199.994598,634.443726 217.762497,639.994324 
	C249.618912,649.946167 282.722351,653.570496 315.463837,659.050110 
	C328.776855,661.278198 342.001984,664.041382 355.245331,666.670837 
	C360.305603,667.675659 365.304962,668.987244 370.332123,670.158936 
	C370.448212,669.805359 370.564301,669.451782 370.680389,669.098206 
	C363.775452,664.560425 356.870514,660.022583 349.353485,655.065613 
M460.000000,563.499451 
	C460.000000,545.411743 460.000000,527.324097 460.000000,509.399017 
	C452.574158,509.399017 445.848083,509.399017 439.000732,509.399017 
	C439.000732,531.458435 438.949982,553.119324 439.048859,574.779480 
	C439.066040,578.544189 439.360260,582.380188 440.129578,586.057068 
	C445.205627,610.318176 464.590637,614.576111 484.274628,611.217224 
	C497.938934,608.885437 508.557251,594.261108 508.146790,579.047729 
	C507.567200,557.566589 508.000000,536.058105 508.000000,514.561340 
	C508.000000,512.798950 508.000000,511.036560 508.000000,509.379761 
	C500.946808,509.379761 494.555145,509.379761 488.000000,509.379761 
	C488.000000,511.584106 488.000000,513.409119 488.000000,515.234192 
	C488.000000,535.731140 488.023560,556.228088 487.990112,576.724976 
	C487.973267,587.047607 482.452118,592.596802 472.621063,592.084167 
	C464.229004,591.646545 460.001556,586.966553 460.000092,576.997192 
	C459.999451,572.831177 460.000000,568.665100 460.000000,563.499451 
M785.949463,609.548096 
	C787.144592,609.063782 788.410278,608.704590 789.524292,608.076477 
	C805.745728,598.929382 813.009644,583.609009 809.583008,565.907288 
	C804.830750,541.358032 784.723938,529.988586 761.911743,534.463684 
	C738.580200,539.040771 726.245789,561.296814 732.596130,583.870544 
	C739.430359,608.164673 762.194214,617.061829 785.949463,609.548096 
M889.000000,582.501587 
	C889.000000,578.504822 888.605164,574.457275 889.110718,570.525513 
	C889.619934,566.565613 890.342346,562.361877 892.167664,558.894836 
	C897.031311,549.657288 910.652832,549.197937 914.086182,557.745605 
	C915.206787,560.535461 915.877625,563.695923 915.916748,566.697754 
	C916.102783,580.971802 916.000000,595.249573 916.000000,609.722412 
	C922.846985,609.722412 929.232178,609.722412 936.000000,609.722412 
	C936.000000,592.996460 936.084473,576.544373 935.930481,560.094604 
	C935.898743,556.707886 935.260376,553.257324 934.418762,549.959412 
	C930.097717,533.028076 907.251282,530.001160 894.856628,537.673401 
	C893.108154,538.755676 891.434265,539.958252 889.319153,541.378235 
	C889.071533,539.222961 888.896179,537.696594 888.747375,536.401245 
	C881.900940,536.401245 875.509033,536.401245 869.256348,536.401245 
	C869.256348,561.060852 869.256348,585.318481 869.256348,609.696167 
	C875.901428,609.696167 882.287415,609.696167 889.000000,609.696167 
	C889.000000,600.763855 889.000000,592.132324 889.000000,582.501587 
M575.000000,596.491577 
	C575.000000,600.914795 575.000000,605.338074 575.000000,609.609619 
	C582.081421,609.609619 588.470093,609.609619 594.998657,609.609619 
	C594.998657,592.071838 595.318176,574.915222 594.846619,557.780457 
	C594.648987,550.598389 592.355774,543.861511 586.082886,538.925720 
	C577.607971,532.257507 560.040588,531.515686 550.359314,540.062012 
	C549.854919,540.507263 549.054382,540.617004 548.252686,540.938721 
	C548.057068,539.129639 547.902527,537.700562 547.755127,536.337463 
	C541.054138,536.337463 534.653809,536.337463 528.369629,536.337463 
	C528.369629,561.052734 528.369629,585.428833 528.369629,609.759521 
	C535.010620,609.759521 541.279358,609.759521 548.000000,609.759521 
	C548.000000,596.412720 547.782104,583.295654 548.137512,570.194153 
	C548.239380,566.439758 549.425598,562.445496 551.109009,559.054871 
	C555.768372,549.670166 569.802917,549.249207 572.990173,557.601929 
	C574.009827,560.274048 574.843689,563.194092 574.910461,566.020813 
	C575.142273,575.840759 575.000000,585.669556 575.000000,596.491577 
M683.500793,612.000000 
	C697.722717,612.972290 709.393921,608.311584 718.322693,596.584045 
	C713.724487,593.498169 709.615784,590.547607 705.286743,587.966431 
	C704.152649,587.290222 701.632751,587.089050 700.941650,587.811035 
	C695.347778,593.654846 688.362976,594.108337 680.911316,594.083008 
	C669.430481,594.043884 662.325867,585.241516 661.106628,575.469482 
	C659.972595,566.380798 664.835083,558.013245 672.447693,554.221497 
	C680.798645,550.062012 693.289551,551.126526 699.311890,556.949951 
	C701.697815,559.257080 703.729065,559.377686 706.311035,557.922119 
	C710.422668,555.604248 714.534546,553.286865 718.894897,550.829224 
	C715.682922,544.312561 710.077698,540.478394 704.087280,537.733765 
	C688.658936,530.664856 663.842896,532.481262 651.267578,546.861816 
	C641.436768,558.104004 638.399048,575.701599 644.471069,588.886230 
	C651.897705,605.012146 664.584778,612.941467 683.500793,612.000000 
M839.000000,578.515015 
	C839.337402,572.922791 838.937744,567.161072 840.175842,561.776001 
	C842.309082,552.498352 844.855774,549.135498 854.562500,552.076477 
	C856.183960,547.774536 857.732117,543.388550 859.489746,539.088135 
	C861.017029,535.351379 858.923462,534.303650 855.907227,534.030029 
	C849.259338,533.427063 842.976135,534.039246 838.495361,539.936523 
	C838.255371,540.252380 837.696838,540.326172 837.232117,540.537354 
	C837.034851,538.978943 836.858276,537.583923 836.706116,536.382263 
	C830.957092,536.382263 825.554626,536.382263 820.247314,536.382263 
	C820.247314,561.029419 820.247314,585.293518 820.247314,609.702515 
	C826.551208,609.702515 832.605103,609.702515 839.000000,609.702515 
	C839.000000,599.442322 839.000000,589.476440 839.000000,578.515015 
M472.988586,674.485413 
	C472.161377,673.664062 471.291382,672.881165 470.514008,672.015076 
	C466.279358,667.297119 467.016357,660.022217 472.068329,656.457336 
	C476.189209,653.549377 483.079895,654.614624 487.309723,658.813538 
	C492.920563,664.383362 492.922913,664.386902 499.344177,660.100830 
	C499.596985,659.932129 499.722534,659.572754 499.903015,659.299194 
	C495.834351,650.147034 488.026978,645.802429 475.340149,646.049377 
	C468.838562,646.175964 463.754242,649.185608 460.535736,654.961670 
	C454.864624,665.139343 458.855103,676.456299 468.963409,684.087891 
	C475.511505,689.031677 481.696716,694.526428 487.595306,700.238281 
	C492.391022,704.882141 492.765442,711.452759 489.421509,716.063293 
	C484.361450,723.040100 476.130737,723.627563 471.565826,720.625977 
	C468.177094,718.397766 465.385162,714.944763 463.021729,711.553406 
	C459.938690,707.129639 457.617004,710.237427 454.821411,711.573853 
	C451.165161,713.321655 453.555969,714.837158 454.814667,716.422180 
	C457.355988,719.622253 459.838715,722.875549 462.511658,725.963135 
	C468.151520,732.477905 486.040100,732.808105 493.490356,726.273926 
	C505.939117,715.356018 502.298523,697.186401 490.102753,687.998169 
	C484.489441,683.769165 479.028839,679.337524 472.988586,674.485413 
M576.602966,695.112000 
	C572.240112,672.834167 557.070679,664.903809 537.229980,668.379028 
	C522.655823,670.931641 513.260864,682.269165 513.273132,698.733215 
	C513.290466,722.032349 531.572754,734.131836 554.194458,729.268066 
	C568.419373,726.209717 578.098083,711.651917 576.602966,695.112000 
M777.990845,668.004578 
	C772.696777,668.139832 767.099731,667.208252 762.165405,668.609985 
	C747.270874,672.840881 739.356750,683.736084 739.255188,698.382263 
	C739.094238,721.569275 757.347412,734.295288 780.314148,729.207458 
	C797.187988,725.469421 806.962708,705.519531 801.208557,689.231628 
	C797.269470,678.081726 789.735352,671.501160 777.990845,668.004578 
M630.000000,565.500000 
	C630.000000,555.744995 630.000000,545.989990 630.000000,536.393433 
	C622.914856,536.393433 616.524963,536.393433 610.255615,536.393433 
	C610.255615,561.049866 610.255615,585.312256 610.255615,609.695068 
	C616.901245,609.695068 623.288513,609.695068 630.000000,609.695068 
	C630.000000,595.095093 630.000000,580.797546 630.000000,565.500000 
M861.000000,719.461670 
	C861.000000,722.564819 861.000000,725.667969 861.000000,728.626953 
	C864.038635,728.626953 866.429199,728.626953 868.999207,728.626953 
	C868.999207,714.778015 869.354736,701.288513 868.888489,687.827576 
	C868.505188,676.761902 859.556152,667.762756 848.429321,667.815979 
	C839.413879,667.859192 831.763550,670.068420 825.211853,677.137695 
	C825.027771,673.997925 824.888000,671.614502 824.756348,669.369080 
	C821.624207,669.369080 818.905579,669.369080 816.394897,669.369080 
	C816.394897,689.450806 816.394897,709.161499 816.394897,728.739136 
	C819.400635,728.739136 822.009277,728.739136 825.000000,728.739136 
	C825.000000,718.693909 825.042603,708.905457 824.987000,699.117615 
	C824.940125,690.873291 828.056641,684.055908 834.541321,679.091003 
	C839.556824,675.251099 845.442627,675.028320 851.350525,676.826233 
	C857.147400,678.590393 859.629700,683.099670 859.939270,688.712952 
	C860.486023,698.622620 860.666321,708.552551 861.000000,719.461670 
M653.582947,714.953369 
	C652.430054,716.294556 651.481750,717.917847 650.088928,718.928345 
	C643.927673,723.398376 636.893555,723.239746 630.457886,720.565369 
	C623.416626,717.639343 621.070557,710.981750 621.020630,703.654297 
	C620.942749,692.224670 621.000000,680.794189 621.000000,669.312256 
	C617.733032,669.312256 615.012451,669.312256 612.000000,669.312256 
	C612.000000,673.590576 611.904968,677.562561 612.018921,681.528503 
	C612.294128,691.109741 612.304932,700.719299 613.128784,710.256470 
	C613.670837,716.531128 616.707886,721.741699 622.070007,725.758179 
	C628.168335,730.326111 634.932251,729.890625 641.828613,730.052490 
	C650.363708,730.252686 657.150513,726.894714 660.890869,719.469116 
	C663.277100,714.731689 664.634155,709.078064 664.907227,703.755920 
	C665.496033,692.278809 665.088257,680.750549 665.088257,669.379395 
	C662.609070,669.379395 659.887756,669.379395 657.000000,669.379395 
	C657.000000,680.399292 657.269653,691.050781 656.867493,701.676880 
	C656.706299,705.934875 655.066650,710.137024 653.582947,714.953369 
M888.587891,719.060181 
	C884.728943,715.322205 884.840454,715.443359 882.933044,717.199219 
	C879.812073,720.072327 878.971924,722.569031 882.955994,725.550354 
	C887.835022,729.201294 893.253357,729.764709 899.126282,730.177307 
	C907.083984,730.736328 913.614136,724.462219 915.730774,718.551575 
	C918.411316,711.066284 915.351318,703.438171 908.422974,698.783203 
	C903.017029,695.151123 897.291138,691.875977 892.386353,687.653503 
	C888.163330,684.017883 889.556091,678.868042 894.796936,676.752625 
	C898.665283,675.191162 902.493591,675.380920 905.839783,678.318542 
	C911.425049,683.221863 911.430969,683.215149 916.298584,676.233276 
	C914.899353,675.010071 913.395752,673.712158 911.910278,672.393860 
	C906.846313,667.899780 895.173096,666.253540 890.186035,669.337891 
	C879.444336,675.981323 879.226990,690.894714 889.876343,697.939880 
	C894.482178,700.986938 899.390137,703.574646 904.030762,706.572327 
	C907.327881,708.702148 909.057251,711.971436 907.579102,715.757446 
	C906.150818,719.415222 903.387146,722.354675 898.997009,721.908813 
	C895.664490,721.570374 892.415588,720.407837 888.587891,719.060181 
M819.500000,634.000000 
	C857.928101,634.000000 896.356201,634.000000 934.784363,634.000000 
	C934.780334,633.563477 934.776367,633.126892 934.772339,632.690369 
	C768.590027,632.690369 602.407654,632.690369 436.225342,632.690369 
	C436.225464,633.126892 436.225616,633.563477 436.225739,634.000000 
	C563.650513,634.000000 691.075256,634.000000 819.500000,634.000000 
M699.675842,668.997681 
	C698.784119,667.845032 697.168335,666.721008 697.121338,665.534912 
	C696.867065,659.108948 697.000732,652.667603 697.000732,646.376892 
	C693.618774,646.376892 690.895081,646.376892 687.849487,646.376892 
	C687.849487,654.026611 687.849487,661.303467 687.849487,669.067505 
	C684.122925,669.067505 680.708618,669.067505 677.331299,669.067505 
	C677.331299,671.629028 677.331299,673.685242 677.331299,676.246887 
	C681.056274,676.246887 684.452454,676.246887 688.158875,676.246887 
	C688.158875,694.033875 688.158875,711.309875 688.158875,728.707397 
	C691.221741,728.707397 693.943298,728.707397 697.167542,728.707397 
	C697.167542,711.022949 697.167542,693.624939 697.167542,675.740845 
	C701.411255,675.740845 705.145874,675.740845 708.753662,675.740845 
	C708.753662,673.296692 708.753662,671.353638 708.753662,668.999817 
	C705.886169,668.999817 703.257141,668.999817 699.675842,668.997681 
M589.000000,719.462402 
	C589.000000,722.565063 589.000000,725.667725 589.000000,728.622131 
	C592.383057,728.622131 595.106750,728.622131 597.757812,728.622131 
	C597.757812,700.971741 597.757812,673.699829 597.757812,646.287842 
	C594.787720,646.287842 592.066162,646.287842 589.000000,646.287842 
	C589.000000,670.540710 589.000000,694.507446 589.000000,719.462402 
M727.998047,671.732361 
	C726.438171,665.679382 722.179382,670.497070 719.262207,668.990723 
	C719.262207,689.261658 719.262207,708.938660 719.262207,728.701355 
	C722.246643,728.701355 724.962219,728.701355 727.999939,728.701355 
	C727.999939,709.833801 727.999939,691.262878 727.998047,671.732361 
M610.447998,525.961060 
	C613.023254,529.182007 616.320251,530.286316 620.449341,530.070496 
	C626.201782,529.770081 629.393188,527.777710 631.131226,522.601135 
	C633.151550,516.583984 631.708862,510.483490 627.434387,506.968414 
	C624.364807,504.444122 616.560120,504.120270 613.076111,506.372650 
	C606.559204,510.585724 605.431824,517.401367 610.447998,525.961060 
M722.569824,645.000000 
	C718.216919,645.397705 715.471985,647.971497 716.140808,651.788757 
	C716.777954,655.425354 718.152710,658.586792 723.193420,658.114502 
	C727.266296,657.732849 729.809265,656.483093 729.998962,652.111511 
	C730.204773,647.367798 728.421814,645.445190 722.569824,645.000000 
z"/>
<path fill="#11A19F" opacity="1.000000" stroke="none" 
	d="
M290.068268,518.081909 
	C292.558472,524.395203 294.493896,531.001709 297.646423,536.964844 
	C305.951721,552.674622 317.728668,565.754944 330.495422,577.940857 
	C339.465576,586.502930 349.023560,594.476318 357.657562,603.355774 
	C366.836487,612.795715 375.641327,622.670166 383.851501,632.959839 
	C390.943726,641.848450 397.574432,651.234070 403.303864,661.045532 
	C409.147308,671.052246 409.132751,682.357727 407.147247,693.599365 
	C406.063568,699.735168 404.933411,705.862671 402.857330,711.913757 
	C400.149597,705.059021 397.797424,698.037170 394.668060,691.380676 
	C384.926941,670.659729 368.836121,655.824097 349.547119,644.228027 
	C325.048981,629.500244 298.459473,619.143494 272.387329,607.703552 
	C251.087524,598.357727 230.033966,588.438416 208.609085,579.394470 
	C195.516373,573.867798 183.849472,566.675110 174.474411,555.965027 
	C165.524368,545.740479 161.263641,533.499207 158.531967,518.967773 
	C165.057129,524.006104 170.460526,528.107056 175.786499,532.306274 
	C185.551666,540.005615 195.237396,547.806274 205.057175,555.434753 
	C206.152603,556.285767 207.901764,556.295227 208.782028,556.538574 
	C201.142166,546.123962 193.091461,536.157288 186.209457,525.440186 
	C180.962006,517.268555 176.686234,508.360992 172.894287,499.393494 
	C167.553375,486.762787 159.762299,476.838531 147.591675,470.017883 
	C139.167221,465.296661 138.615204,466.907806 143.164139,456.350372 
	C149.818588,440.906342 158.923691,427.049347 171.626144,416.227509 
	C182.352280,407.089294 194.465805,399.579559 205.772964,391.486725 
	C199.126266,389.006317 191.300217,386.085785 182.337097,382.740936 
	C196.201813,379.308319 208.880798,375.992432 221.647003,373.055786 
	C235.902100,369.776581 250.249130,366.899231 264.532562,363.740509 
	C278.521118,360.647003 292.590820,358.406403 307.826080,359.137634 
	C314.198883,360.060394 319.788147,360.552826 325.246429,361.679871 
	C332.825317,363.244781 340.305939,365.285889 347.828613,367.123138 
	C349.308319,367.758148 350.787994,368.393188 352.785614,369.400391 
	C356.069885,371.141449 358.793518,372.606445 361.611420,373.859344 
	C367.720184,376.575470 373.877136,379.183167 380.014404,381.835175 
	C391.519806,381.899658 403.026306,382.084045 414.530151,381.978149 
	C420.294159,381.925079 426.070709,381.515869 431.808472,380.938568 
	C435.572845,380.559814 437.379028,381.944763 437.531342,385.922424 
	C432.507172,389.436676 427.327698,393.059509 421.745514,396.964050 
	C429.806854,402.772156 437.764069,408.505249 445.721283,414.238342 
	C445.738495,414.806549 445.755676,415.374756 445.772858,415.942963 
	C431.266266,418.295532 416.792328,420.881317 402.241791,422.920319 
	C392.193817,424.328369 382.039917,424.980499 371.170441,425.854065 
	C359.923737,426.490021 349.442902,427.788177 338.955322,427.844940 
	C327.905273,427.904724 318.016724,431.183258 308.815979,436.678802 
	C296.877075,443.809814 288.990448,454.090149 284.724609,467.600616 
	C281.169434,478.860321 282.047119,489.795776 284.543365,500.810699 
	C285.874298,506.683502 288.194550,512.332092 290.068268,518.081909 
z"/>
<path fill="#00C4D2" opacity="1.000000" stroke="none" 
	d="
M290.430420,518.055176 
	C288.194550,512.332092 285.874298,506.683502 284.543365,500.810699 
	C282.047119,489.795776 281.169434,478.860321 284.724609,467.600616 
	C288.990448,454.090149 296.877075,443.809814 308.815979,436.678802 
	C318.016724,431.183258 327.905273,427.904724 338.955322,427.844940 
	C349.442902,427.788177 359.923737,426.490021 370.753296,425.897644 
	C384.282898,451.779205 397.688202,477.390686 410.556335,503.269318 
	C416.915894,516.058777 422.559692,529.227905 427.988464,542.446533 
	C430.785767,549.257629 431.245056,556.394043 426.106232,562.818481 
	C425.140106,564.026367 424.838165,565.785950 424.306427,567.317627 
	C420.889038,577.161621 413.102386,582.959045 403.184814,581.809204 
	C394.828705,580.840393 386.438477,579.290222 378.367279,576.949341 
	C366.802277,573.595154 358.428223,566.940186 355.348694,554.113220 
	C352.602325,542.673950 342.919861,536.634277 332.909424,532.237366 
	C326.774445,529.542725 319.886719,528.211487 313.195953,527.221252 
	C304.857391,525.987244 297.890839,521.979187 290.430420,518.055176 
z"/>
<path fill="#10A29F" opacity="1.000000" stroke="none" 
	d="
M349.659546,655.275146 
	C356.870514,660.022583 363.775452,664.560425 370.680389,669.098206 
	C370.564301,669.451782 370.448212,669.805359 370.332123,670.158936 
	C365.304962,668.987244 360.305603,667.675659 355.245331,666.670837 
	C342.001984,664.041382 328.776855,661.278198 315.463837,659.050110 
	C282.722351,653.570496 249.618912,649.946167 217.762497,639.994324 
	C199.994598,634.443726 182.664291,627.674622 167.314789,616.964294 
	C151.146149,605.682373 142.068878,589.840881 138.910904,570.326965 
	C136.649826,556.355103 138.715378,542.907043 142.197647,529.492371 
	C142.307327,529.069824 142.834488,528.755676 144.013336,527.462769 
	C147.467377,532.867554 150.804199,537.955933 154.007690,543.126892 
	C163.058456,557.736389 174.730316,569.924377 188.645706,579.875488 
	C208.920349,594.374146 232.230164,601.799988 255.704559,609.371704 
	C273.570190,615.134216 290.765991,623.292053 307.694031,631.544678 
	C322.002167,638.520081 335.498077,647.161560 349.659546,655.275146 
z"/>
<path fill="#00C8D7" opacity="1.000000" stroke="none" 
	d="
M460.000000,563.999268 
	C460.000000,568.665100 459.999451,572.831177 460.000092,576.997192 
	C460.001556,586.966553 464.229004,591.646545 472.621063,592.084167 
	C482.452118,592.596802 487.973267,587.047607 487.990112,576.724976 
	C488.023560,556.228088 488.000000,535.731140 488.000000,515.234192 
	C488.000000,513.409119 488.000000,511.584106 488.000000,509.379761 
	C494.555145,509.379761 500.946808,509.379761 508.000000,509.379761 
	C508.000000,511.036560 508.000000,512.798950 508.000000,514.561340 
	C508.000000,536.058105 507.567200,557.566589 508.146790,579.047729 
	C508.557251,594.261108 497.938934,608.885437 484.274628,611.217224 
	C464.590637,614.576111 445.205627,610.318176 440.129578,586.057068 
	C439.360260,582.380188 439.066040,578.544189 439.048859,574.779480 
	C438.949982,553.119324 439.000732,531.458435 439.000732,509.399017 
	C445.848083,509.399017 452.574158,509.399017 460.000000,509.399017 
	C460.000000,527.324097 460.000000,545.411743 460.000000,563.999268 
z"/>
<path fill="#00C8D7" opacity="1.000000" stroke="none" 
	d="
M785.599121,609.749695 
	C762.194214,617.061829 739.430359,608.164673 732.596130,583.870544 
	C726.245789,561.296814 738.580200,539.040771 761.911743,534.463684 
	C784.723938,529.988586 804.830750,541.358032 809.583008,565.907288 
	C813.009644,583.609009 805.745728,598.929382 789.524292,608.076477 
	C788.410278,608.704590 787.144592,609.063782 785.599121,609.749695 
M755.958801,558.562622 
	C752.009827,563.340881 750.523987,568.889954 751.014221,574.976929 
	C752.336914,591.399780 767.526428,598.455200 779.883362,591.904602 
	C787.384155,587.928406 790.454712,581.133728 790.134094,572.361023 
	C789.794250,563.062256 786.562988,555.987976 777.503479,552.962524 
	C770.695068,550.688721 762.686890,550.965759 755.958801,558.562622 
z"/>
<path fill="#00C8D7" opacity="1.000000" stroke="none" 
	d="
M889.000000,583.001221 
	C889.000000,592.132324 889.000000,600.763855 889.000000,609.696167 
	C882.287415,609.696167 875.901428,609.696167 869.256348,609.696167 
	C869.256348,585.318481 869.256348,561.060852 869.256348,536.401245 
	C875.509033,536.401245 881.900940,536.401245 888.747375,536.401245 
	C888.896179,537.696594 889.071533,539.222961 889.319153,541.378235 
	C891.434265,539.958252 893.108154,538.755676 894.856628,537.673401 
	C907.251282,530.001160 930.097717,533.028076 934.418762,549.959412 
	C935.260376,553.257324 935.898743,556.707886 935.930481,560.094604 
	C936.084473,576.544373 936.000000,592.996460 936.000000,609.722412 
	C929.232178,609.722412 922.846985,609.722412 916.000000,609.722412 
	C916.000000,595.249573 916.102783,580.971802 915.916748,566.697754 
	C915.877625,563.695923 915.206787,560.535461 914.086182,557.745605 
	C910.652832,549.197937 897.031311,549.657288 892.167664,558.894836 
	C890.342346,562.361877 889.619934,566.565613 889.110718,570.525513 
	C888.605164,574.457275 889.000000,578.504822 889.000000,583.001221 
z"/>
<path fill="#00C8D7" opacity="1.000000" stroke="none" 
	d="
M575.000000,595.993286 
	C575.000000,585.669556 575.142273,575.840759 574.910461,566.020813 
	C574.843689,563.194092 574.009827,560.274048 572.990173,557.601929 
	C569.802917,549.249207 555.768372,549.670166 551.109009,559.054871 
	C549.425598,562.445496 548.239380,566.439758 548.137512,570.194153 
	C547.782104,583.295654 548.000000,596.412720 548.000000,609.759521 
	C541.279358,609.759521 535.010620,609.759521 528.369629,609.759521 
	C528.369629,585.428833 528.369629,561.052734 528.369629,536.337463 
	C534.653809,536.337463 541.054138,536.337463 547.755127,536.337463 
	C547.902527,537.700562 548.057068,539.129639 548.252686,540.938721 
	C549.054382,540.617004 549.854919,540.507263 550.359314,540.062012 
	C560.040588,531.515686 577.607971,532.257507 586.082886,538.925720 
	C592.355774,543.861511 594.648987,550.598389 594.846619,557.780457 
	C595.318176,574.915222 594.998657,592.071838 594.998657,609.609619 
	C588.470093,609.609619 582.081421,609.609619 575.000000,609.609619 
	C575.000000,605.338074 575.000000,600.914795 575.000000,595.993286 
z"/>
<path fill="#00C8D7" opacity="1.000000" stroke="none" 
	d="
M683.010376,612.000000 
	C664.584778,612.941467 651.897705,605.012146 644.471069,588.886230 
	C638.399048,575.701599 641.436768,558.104004 651.267578,546.861816 
	C663.842896,532.481262 688.658936,530.664856 704.087280,537.733765 
	C710.077698,540.478394 715.682922,544.312561 718.894897,550.829224 
	C714.534546,553.286865 710.422668,555.604248 706.311035,557.922119 
	C703.729065,559.377686 701.697815,559.257080 699.311890,556.949951 
	C693.289551,551.126526 680.798645,550.062012 672.447693,554.221497 
	C664.835083,558.013245 659.972595,566.380798 661.106628,575.469482 
	C662.325867,585.241516 669.430481,594.043884 680.911316,594.083008 
	C688.362976,594.108337 695.347778,593.654846 700.941650,587.811035 
	C701.632751,587.089050 704.152649,587.290222 705.286743,587.966431 
	C709.615784,590.547607 713.724487,593.498169 718.322693,596.584045 
	C709.393921,608.311584 697.722717,612.972290 683.010376,612.000000 
z"/>
<path fill="#00C8D7" opacity="1.000000" stroke="none" 
	d="
M839.000000,579.012756 
	C839.000000,589.476440 839.000000,599.442322 839.000000,609.702515 
	C832.605103,609.702515 826.551208,609.702515 820.247314,609.702515 
	C820.247314,585.293518 820.247314,561.029419 820.247314,536.382263 
	C825.554626,536.382263 830.957092,536.382263 836.706116,536.382263 
	C836.858276,537.583923 837.034851,538.978943 837.232117,540.537354 
	C837.696838,540.326172 838.255371,540.252380 838.495361,539.936523 
	C842.976135,534.039246 849.259338,533.427063 855.907227,534.030029 
	C858.923462,534.303650 861.017029,535.351379 859.489746,539.088135 
	C857.732117,543.388550 856.183960,547.774536 854.562500,552.076477 
	C844.855774,549.135498 842.309082,552.498352 840.175842,561.776001 
	C838.937744,567.161072 839.337402,572.922791 839.000000,579.012756 
z"/>
<path fill="#10A2A1" opacity="1.000000" stroke="none" 
	d="
M473.243774,674.741577 
	C479.028839,679.337524 484.489441,683.769165 490.102753,687.998169 
	C502.298523,697.186401 505.939117,715.356018 493.490356,726.273926 
	C486.040100,732.808105 468.151520,732.477905 462.511658,725.963135 
	C459.838715,722.875549 457.355988,719.622253 454.814667,716.422180 
	C453.555969,714.837158 451.165161,713.321655 454.821411,711.573853 
	C457.617004,710.237427 459.938690,707.129639 463.021729,711.553406 
	C465.385162,714.944763 468.177094,718.397766 471.565826,720.625977 
	C476.130737,723.627563 484.361450,723.040100 489.421509,716.063293 
	C492.765442,711.452759 492.391022,704.882141 487.595306,700.238281 
	C481.696716,694.526428 475.511505,689.031677 468.963409,684.087891 
	C458.855103,676.456299 454.864624,665.139343 460.535736,654.961670 
	C463.754242,649.185608 468.838562,646.175964 475.340149,646.049377 
	C488.026978,645.802429 495.834351,650.147034 499.905212,659.300659 
	C499.722534,659.572754 499.596985,659.932129 499.344177,660.100830 
	C492.922913,664.386902 492.920563,664.383362 487.309723,658.813538 
	C483.079895,654.614624 476.189209,653.549377 472.068329,656.457336 
	C467.016357,660.022217 466.279358,667.297119 470.514008,672.015076 
	C471.291382,672.881165 472.161377,673.664062 473.243774,674.741577 
z"/>
<path fill="#10A2A1" opacity="1.000000" stroke="none" 
	d="
M576.771545,695.522949 
	C578.098083,711.651917 568.419373,726.209717 554.194458,729.268066 
	C531.572754,734.131836 513.290466,722.032349 513.273132,698.733215 
	C513.260864,682.269165 522.655823,670.931641 537.229980,668.379028 
	C557.070679,664.903809 572.240112,672.834167 576.771545,695.522949 
M522.000000,698.569580 
	C522.551819,710.781677 529.572083,719.931335 540.131165,721.753418 
	C550.606506,723.561218 560.175171,720.989075 566.018494,707.866882 
	C570.154480,698.578613 567.782532,690.233643 561.401794,683.011169 
	C555.298828,676.103027 547.372070,674.318054 538.603821,676.868347 
	C528.245300,679.881287 523.646057,687.652344 522.000000,698.569580 
z"/>
<path fill="#10A2A1" opacity="1.000000" stroke="none" 
	d="
M778.432983,668.020630 
	C789.735352,671.501160 797.269470,678.081726 801.208557,689.231628 
	C806.962708,705.519531 797.187988,725.469421 780.314148,729.207458 
	C757.347412,734.295288 739.094238,721.569275 739.255188,698.382263 
	C739.356750,683.736084 747.270874,672.840881 762.165405,668.609985 
	C767.099731,667.208252 772.696777,668.139832 778.432983,668.020630 
M790.959351,687.784424 
	C790.664062,687.387817 790.332825,687.012878 790.078796,686.591370 
	C783.235474,675.236328 770.688904,673.911743 761.850037,677.664734 
	C753.111267,681.375305 745.385254,693.629944 748.932495,704.935913 
	C751.655334,713.614563 756.990540,719.468506 765.739258,721.799194 
	C774.204529,724.054321 784.635193,720.315674 789.384216,712.951904 
	C794.308167,705.317078 796.126648,697.066895 790.959351,687.784424 
z"/>
<path fill="#F88AB7" opacity="1.000000" stroke="none" 
	d="
M380.163239,381.545929 
	C373.877136,379.183167 367.720184,376.575470 361.611420,373.859344 
	C358.793518,372.606445 356.069885,371.141449 353.143860,369.461548 
	C383.787598,352.121765 414.587341,335.086395 445.423187,318.116516 
	C445.977173,317.811646 446.962616,318.290741 448.858734,318.564636 
	C447.265198,320.979431 446.390228,323.189789 444.798981,324.580658 
	C427.744080,339.487976 410.547943,354.233490 393.457733,369.100647 
	C388.956940,373.015991 384.687683,377.197449 380.163239,381.545929 
z"/>
<path fill="#00C8D7" opacity="1.000000" stroke="none" 
	d="
M630.000000,566.000000 
	C630.000000,580.797546 630.000000,595.095093 630.000000,609.695068 
	C623.288513,609.695068 616.901245,609.695068 610.255615,609.695068 
	C610.255615,585.312256 610.255615,561.049866 610.255615,536.393433 
	C616.524963,536.393433 622.914856,536.393433 630.000000,536.393433 
	C630.000000,545.989990 630.000000,555.744995 630.000000,566.000000 
z"/>
<path fill="#10A2A1" opacity="1.000000" stroke="none" 
	d="
M861.000000,718.967834 
	C860.666321,708.552551 860.486023,698.622620 859.939270,688.712952 
	C859.629700,683.099670 857.147400,678.590393 851.350525,676.826233 
	C845.442627,675.028320 839.556824,675.251099 834.541321,679.091003 
	C828.056641,684.055908 824.940125,690.873291 824.987000,699.117615 
	C825.042603,708.905457 825.000000,718.693909 825.000000,728.739136 
	C822.009277,728.739136 819.400635,728.739136 816.394897,728.739136 
	C816.394897,709.161499 816.394897,689.450806 816.394897,669.369080 
	C818.905579,669.369080 821.624207,669.369080 824.756348,669.369080 
	C824.888000,671.614502 825.027771,673.997925 825.211853,677.137695 
	C831.763550,670.068420 839.413879,667.859192 848.429321,667.815979 
	C859.556152,667.762756 868.505188,676.761902 868.888489,687.827576 
	C869.354736,701.288513 868.999207,714.778015 868.999207,728.626953 
	C866.429199,728.626953 864.038635,728.626953 861.000000,728.626953 
	C861.000000,725.667969 861.000000,722.564819 861.000000,718.967834 
z"/>
<path fill="#10A2A1" opacity="1.000000" stroke="none" 
	d="
M653.841431,714.658936 
	C655.066650,710.137024 656.706299,705.934875 656.867493,701.676880 
	C657.269653,691.050781 657.000000,680.399292 657.000000,669.379395 
	C659.887756,669.379395 662.609070,669.379395 665.088257,669.379395 
	C665.088257,680.750549 665.496033,692.278809 664.907227,703.755920 
	C664.634155,709.078064 663.277100,714.731689 660.890869,719.469116 
	C657.150513,726.894714 650.363708,730.252686 641.828613,730.052490 
	C634.932251,729.890625 628.168335,730.326111 622.070007,725.758179 
	C616.707886,721.741699 613.670837,716.531128 613.128784,710.256470 
	C612.304932,700.719299 612.294128,691.109741 612.018921,681.528503 
	C611.904968,677.562561 612.000000,673.590576 612.000000,669.312256 
	C615.012451,669.312256 617.733032,669.312256 621.000000,669.312256 
	C621.000000,680.794189 620.942749,692.224670 621.020630,703.654297 
	C621.070557,710.981750 623.416626,717.639343 630.457886,720.565369 
	C636.893555,723.239746 643.927673,723.398376 650.088928,718.928345 
	C651.481750,717.917847 652.430054,716.294556 653.841431,714.658936 
z"/>
<path fill="#10A2A1" opacity="1.000000" stroke="none" 
	d="
M888.858704,719.336060 
	C892.415588,720.407837 895.664490,721.570374 898.997009,721.908813 
	C903.387146,722.354675 906.150818,719.415222 907.579102,715.757446 
	C909.057251,711.971436 907.327881,708.702148 904.030762,706.572327 
	C899.390137,703.574646 894.482178,700.986938 889.876343,697.939880 
	C879.226990,690.894714 879.444336,675.981323 890.186035,669.337891 
	C895.173096,666.253540 906.846313,667.899780 911.910278,672.393860 
	C913.395752,673.712158 914.899353,675.010071 916.298584,676.233276 
	C911.430969,683.215149 911.425049,683.221863 905.839783,678.318542 
	C902.493591,675.380920 898.665283,675.191162 894.796936,676.752625 
	C889.556091,678.868042 888.163330,684.017883 892.386353,687.653503 
	C897.291138,691.875977 903.017029,695.151123 908.422974,698.783203 
	C915.351318,703.438171 918.411316,711.066284 915.730774,718.551575 
	C913.614136,724.462219 907.083984,730.736328 899.126282,730.177307 
	C893.253357,729.764709 887.835022,729.201294 882.955994,725.550354 
	C878.971924,722.569031 879.812073,720.072327 882.933044,717.199219 
	C884.840454,715.443359 884.728943,715.322205 888.858704,719.336060 
z"/>
<path fill="#01C9D8" opacity="1.000000" stroke="none" 
	d="
M819.000000,634.000000 
	C691.075256,634.000000 563.650513,634.000000 436.225739,634.000000 
	C436.225616,633.563477 436.225464,633.126892 436.225342,632.690369 
	C602.407654,632.690369 768.590027,632.690369 934.772339,632.690369 
	C934.776367,633.126892 934.780334,633.563477 934.784363,634.000000 
	C896.356201,634.000000 857.928101,634.000000 819.000000,634.000000 
z"/>
<path fill="#10A2A1" opacity="1.000000" stroke="none" 
	d="
M700.151978,668.998779 
	C703.257141,668.999817 705.886169,668.999817 708.753662,668.999817 
	C708.753662,671.353638 708.753662,673.296692 708.753662,675.740845 
	C705.145874,675.740845 701.411255,675.740845 697.167542,675.740845 
	C697.167542,693.624939 697.167542,711.022949 697.167542,728.707397 
	C693.943298,728.707397 691.221741,728.707397 688.158875,728.707397 
	C688.158875,711.309875 688.158875,694.033875 688.158875,676.246887 
	C684.452454,676.246887 681.056274,676.246887 677.331299,676.246887 
	C677.331299,673.685242 677.331299,671.629028 677.331299,669.067505 
	C680.708618,669.067505 684.122925,669.067505 687.849487,669.067505 
	C687.849487,661.303467 687.849487,654.026611 687.849487,646.376892 
	C690.895081,646.376892 693.618774,646.376892 697.000732,646.376892 
	C697.000732,652.667603 696.867065,659.108948 697.121338,665.534912 
	C697.168335,666.721008 698.784119,667.845032 700.151978,668.998779 
z"/>
<path fill="#00C4D2" opacity="1.000000" stroke="none" 
	d="
M347.890869,366.713379 
	C340.305939,365.285889 332.825317,363.244781 325.246429,361.679871 
	C319.788147,360.552826 314.198883,360.060394 308.287689,359.110138 
	C310.787354,351.594025 313.096069,343.957031 316.700684,336.990631 
	C320.670135,329.319183 328.483307,328.467529 334.284821,335.076813 
	C337.948242,339.250275 340.651093,344.492065 342.866180,349.649261 
	C345.143372,354.950928 346.303955,360.732208 347.890869,366.713379 
z"/>
<path fill="#10A2A1" opacity="1.000000" stroke="none" 
	d="
M589.000000,718.968323 
	C589.000000,694.507446 589.000000,670.540710 589.000000,646.287842 
	C592.066162,646.287842 594.787720,646.287842 597.757812,646.287842 
	C597.757812,673.699829 597.757812,700.971741 597.757812,728.622131 
	C595.106750,728.622131 592.383057,728.622131 589.000000,728.622131 
	C589.000000,725.667725 589.000000,722.565063 589.000000,718.968323 
z"/>
<path fill="#10A2A1" opacity="1.000000" stroke="none" 
	d="
M727.999023,672.212158 
	C727.999939,691.262878 727.999939,709.833801 727.999939,728.701355 
	C724.962219,728.701355 722.246643,728.701355 719.262207,728.701355 
	C719.262207,708.938660 719.262207,689.261658 719.262207,668.990723 
	C722.179382,670.497070 726.438171,665.679382 727.999023,672.212158 
z"/>
<path fill="#00C8D7" opacity="1.000000" stroke="none" 
	d="
M610.188599,525.678833 
	C605.431824,517.401367 606.559204,510.585724 613.076111,506.372650 
	C616.560120,504.120270 624.364807,504.444122 627.434387,506.968414 
	C631.708862,510.483490 633.151550,516.583984 631.131226,522.601135 
	C629.393188,527.777710 626.201782,529.770081 620.449341,530.070496 
	C616.320251,530.286316 613.023254,529.182007 610.188599,525.678833 
z"/>
<path fill="#10A2A1" opacity="1.000000" stroke="none" 
	d="
M722.989441,645.000000 
	C728.421814,645.445190 730.204773,647.367798 729.998962,652.111511 
	C729.809265,656.483093 727.266296,657.732849 723.193420,658.114502 
	C718.152710,658.586792 716.777954,655.425354 716.140808,651.788757 
	C715.471985,647.971497 718.216919,645.397705 722.989441,645.000000 
z"/>
<path fill="#FFFFFF" opacity="1.000000" stroke="none" 
	d="
M756.212280,558.294250 
	C762.686890,550.965759 770.695068,550.688721 777.503479,552.962524 
	C786.562988,555.987976 789.794250,563.062256 790.134094,572.361023 
	C790.454712,581.133728 787.384155,587.928406 779.883362,591.904602 
	C767.526428,598.455200 752.336914,591.399780 751.014221,574.976929 
	C750.523987,568.889954 752.009827,563.340881 756.212280,558.294250 
z"/>
<path fill="#FFFFFF" opacity="1.000000" stroke="none" 
	d="
M522.000488,698.133301 
	C523.646057,687.652344 528.245300,679.881287 538.603821,676.868347 
	C547.372070,674.318054 555.298828,676.103027 561.401794,683.011169 
	C567.782532,690.233643 570.154480,698.578613 566.018494,707.866882 
	C560.175171,720.989075 550.606506,723.561218 540.131165,721.753418 
	C529.572083,719.931335 522.551819,710.781677 522.000488,698.133301 
z"/>
<path fill="#FFFFFF" opacity="1.000000" stroke="none" 
	d="
M791.034485,688.161072 
	C796.126648,697.066895 794.308167,705.317078 789.384216,712.951904 
	C784.635193,720.315674 774.204529,724.054321 765.739258,721.799194 
	C756.990540,719.468506 751.655334,713.614563 748.932495,704.935913 
	C745.385254,693.629944 753.111267,681.375305 761.850037,677.664734 
	C770.688904,673.911743 783.235474,675.236328 790.078796,686.591370 
	C790.332825,687.012878 790.664062,687.387817 791.034485,688.161072 
z"/>
</svg>